<mxfile host="65bd71144e">
    <diagram id="rSng0zxf0VEKp1aGrEp3" name="Page-1">
        <mxGraphModel dx="1066" dy="537" grid="1" gridSize="10" guides="1" tooltips="1" connect="1" arrows="1" fold="1" page="1" pageScale="1" pageWidth="850" pageHeight="1100" math="0" shadow="0">
            <root>
                <mxCell id="0"/>
                <mxCell id="1" parent="0"/>
                <mxCell id="104" value="Funcionalidade:" style="shape=table;startSize=30;container=1;collapsible=0;childLayout=tableLayout;strokeColor=#BD7000;fontFamily=Lucida Console;fontSize=12;fontColor=#000000;fillColor=#f0a30a;swimlaneLine=1;shadow=0;rounded=1;columnLines=1;rowLines=1;fixedRows=0;resizeLast=0;resizeLastRow=0;arcSize=15;swimlaneHead=1;swimlaneBody=1;horizontal=1;top=1;bottom=1;fontStyle=1" vertex="1" parent="1">
                    <mxGeometry x="40" y="470" width="770" height="554" as="geometry"/>
                </mxCell>
                <mxCell id="105" value="" style="shape=tableRow;horizontal=0;startSize=0;swimlaneHead=0;swimlaneBody=0;top=0;left=0;bottom=0;right=0;collapsible=0;dropTarget=0;fillColor=none;points=[[0,0.5],[1,0.5]];portConstraint=eastwest;strokeColor=default;fontFamily=Helvetica;fontSize=12;fontColor=default;" vertex="1" parent="104">
                    <mxGeometry y="30" width="770" height="53" as="geometry"/>
                </mxCell>
                <mxCell id="106" value="User Story" style="shape=partialRectangle;html=1;whiteSpace=wrap;connectable=0;overflow=hidden;fillColor=none;top=0;left=0;bottom=0;right=0;pointerEvents=1;strokeColor=default;fontFamily=Helvetica;fontSize=12;fontColor=default;startSize=40;rowspan=1;colspan=2;" vertex="1" parent="105">
                    <mxGeometry width="770" height="53" as="geometry">
                        <mxRectangle width="129" height="53" as="alternateBounds"/>
                    </mxGeometry>
                </mxCell>
                <mxCell id="107" value="" style="shape=partialRectangle;html=1;whiteSpace=wrap;connectable=0;overflow=hidden;fillColor=none;top=0;left=0;bottom=0;right=0;pointerEvents=1;strokeColor=default;fontFamily=Helvetica;fontSize=12;fontColor=default;startSize=40;" vertex="1" visible="0" parent="105">
                    <mxGeometry x="129" width="641" height="53" as="geometry">
                        <mxRectangle width="641" height="53" as="alternateBounds"/>
                    </mxGeometry>
                </mxCell>
                <mxCell id="108" value="" style="shape=tableRow;horizontal=0;startSize=0;swimlaneHead=0;swimlaneBody=0;top=0;left=0;bottom=0;right=0;collapsible=0;dropTarget=0;fillColor=none;points=[[0,0.5],[1,0.5]];portConstraint=eastwest;strokeColor=default;fontFamily=Helvetica;fontSize=12;fontColor=default;" vertex="1" parent="104">
                    <mxGeometry y="83" width="770" height="52" as="geometry"/>
                </mxCell>
                <mxCell id="109" value="Eu" style="shape=partialRectangle;html=1;whiteSpace=wrap;connectable=0;overflow=hidden;fillColor=none;top=0;left=0;bottom=0;right=0;pointerEvents=1;strokeColor=default;fontFamily=Helvetica;fontSize=12;fontColor=default;startSize=40;fontStyle=1" vertex="1" parent="108">
                    <mxGeometry width="129" height="52" as="geometry">
                        <mxRectangle width="129" height="52" as="alternateBounds"/>
                    </mxGeometry>
                </mxCell>
                <mxCell id="110" value="" style="shape=partialRectangle;html=1;whiteSpace=wrap;connectable=0;overflow=hidden;fillColor=none;top=0;left=0;bottom=0;right=0;pointerEvents=1;strokeColor=default;fontFamily=Helvetica;fontSize=12;fontColor=default;startSize=40;" vertex="1" parent="108">
                    <mxGeometry x="129" width="641" height="52" as="geometry">
                        <mxRectangle width="641" height="52" as="alternateBounds"/>
                    </mxGeometry>
                </mxCell>
                <mxCell id="111" value="" style="shape=tableRow;horizontal=0;startSize=0;swimlaneHead=0;swimlaneBody=0;top=0;left=0;bottom=0;right=0;collapsible=0;dropTarget=0;fillColor=none;points=[[0,0.5],[1,0.5]];portConstraint=eastwest;strokeColor=default;fontFamily=Helvetica;fontSize=12;fontColor=default;" vertex="1" parent="104">
                    <mxGeometry y="135" width="770" height="53" as="geometry"/>
                </mxCell>
                <mxCell id="112" value="Quero" style="shape=partialRectangle;html=1;whiteSpace=wrap;connectable=0;overflow=hidden;fillColor=none;top=0;left=0;bottom=0;right=0;pointerEvents=1;strokeColor=default;fontFamily=Helvetica;fontSize=12;fontColor=default;startSize=40;fontStyle=1" vertex="1" parent="111">
                    <mxGeometry width="129" height="53" as="geometry">
                        <mxRectangle width="129" height="53" as="alternateBounds"/>
                    </mxGeometry>
                </mxCell>
                <mxCell id="113" value="" style="shape=partialRectangle;html=1;whiteSpace=wrap;connectable=0;overflow=hidden;fillColor=none;top=0;left=0;bottom=0;right=0;pointerEvents=1;strokeColor=default;fontFamily=Helvetica;fontSize=12;fontColor=default;startSize=40;" vertex="1" parent="111">
                    <mxGeometry x="129" width="641" height="53" as="geometry">
                        <mxRectangle width="641" height="53" as="alternateBounds"/>
                    </mxGeometry>
                </mxCell>
                <mxCell id="126" style="shape=tableRow;horizontal=0;startSize=0;swimlaneHead=0;swimlaneBody=0;top=0;left=0;bottom=0;right=0;collapsible=0;dropTarget=0;fillColor=none;points=[[0,0.5],[1,0.5]];portConstraint=eastwest;strokeColor=default;fontFamily=Helvetica;fontSize=12;fontColor=default;" vertex="1" parent="104">
                    <mxGeometry y="188" width="770" height="52" as="geometry"/>
                </mxCell>
                <mxCell id="127" value="Para" style="shape=partialRectangle;html=1;whiteSpace=wrap;connectable=0;overflow=hidden;fillColor=none;top=0;left=0;bottom=0;right=0;pointerEvents=1;strokeColor=default;fontFamily=Helvetica;fontSize=12;fontColor=default;startSize=40;fontStyle=1" vertex="1" parent="126">
                    <mxGeometry width="129" height="52" as="geometry">
                        <mxRectangle width="129" height="52" as="alternateBounds"/>
                    </mxGeometry>
                </mxCell>
                <mxCell id="128" style="shape=partialRectangle;html=1;whiteSpace=wrap;connectable=0;overflow=hidden;fillColor=none;top=0;left=0;bottom=0;right=0;pointerEvents=1;strokeColor=default;fontFamily=Helvetica;fontSize=12;fontColor=default;startSize=40;" vertex="1" parent="126">
                    <mxGeometry x="129" width="641" height="52" as="geometry">
                        <mxRectangle width="641" height="52" as="alternateBounds"/>
                    </mxGeometry>
                </mxCell>
                <mxCell id="117" style="shape=tableRow;horizontal=0;startSize=0;swimlaneHead=0;swimlaneBody=0;top=0;left=0;bottom=0;right=0;collapsible=0;dropTarget=0;fillColor=none;points=[[0,0.5],[1,0.5]];portConstraint=eastwest;strokeColor=default;fontFamily=Helvetica;fontSize=12;fontColor=default;" vertex="1" parent="104">
                    <mxGeometry y="240" width="770" height="53" as="geometry"/>
                </mxCell>
                <mxCell id="118" value="Regras de NegÃ³cio" style="shape=partialRectangle;html=1;whiteSpace=wrap;connectable=0;overflow=hidden;fillColor=#a0522d;top=0;left=0;bottom=0;right=0;pointerEvents=1;strokeColor=#6D1F00;fontFamily=Helvetica;fontSize=12;fontColor=#ffffff;startSize=40;rowspan=1;colspan=2;fontStyle=1" vertex="1" parent="117">
                    <mxGeometry width="770" height="53" as="geometry">
                        <mxRectangle width="129" height="53" as="alternateBounds"/>
                    </mxGeometry>
                </mxCell>
                <mxCell id="119" style="shape=partialRectangle;html=1;whiteSpace=wrap;connectable=0;overflow=hidden;fillColor=none;top=0;left=0;bottom=0;right=0;pointerEvents=1;strokeColor=default;fontFamily=Helvetica;fontSize=12;fontColor=default;startSize=40;" vertex="1" visible="0" parent="117">
                    <mxGeometry x="129" width="641" height="53" as="geometry">
                        <mxRectangle width="641" height="53" as="alternateBounds"/>
                    </mxGeometry>
                </mxCell>
                <mxCell id="114" style="shape=tableRow;horizontal=0;startSize=0;swimlaneHead=0;swimlaneBody=0;top=0;left=0;bottom=0;right=0;collapsible=0;dropTarget=0;fillColor=none;points=[[0,0.5],[1,0.5]];portConstraint=eastwest;strokeColor=default;fontFamily=Helvetica;fontSize=12;fontColor=default;" vertex="1" parent="104">
                    <mxGeometry y="293" width="770" height="52" as="geometry"/>
                </mxCell>
                <mxCell id="115" value="RN 1" style="shape=partialRectangle;html=1;whiteSpace=wrap;connectable=0;overflow=hidden;fillColor=none;top=0;left=0;bottom=0;right=0;pointerEvents=1;strokeColor=default;fontFamily=Helvetica;fontSize=12;fontColor=default;startSize=40;fontStyle=1" vertex="1" parent="114">
                    <mxGeometry width="129" height="52" as="geometry">
                        <mxRectangle width="129" height="52" as="alternateBounds"/>
                    </mxGeometry>
                </mxCell>
                <mxCell id="116" style="shape=partialRectangle;html=1;whiteSpace=wrap;connectable=0;overflow=hidden;fillColor=none;top=0;left=0;bottom=0;right=0;pointerEvents=1;strokeColor=default;fontFamily=Helvetica;fontSize=12;fontColor=default;startSize=40;" vertex="1" parent="114">
                    <mxGeometry x="129" width="641" height="52" as="geometry">
                        <mxRectangle width="641" height="52" as="alternateBounds"/>
                    </mxGeometry>
                </mxCell>
                <mxCell id="133" style="shape=tableRow;horizontal=0;startSize=0;swimlaneHead=0;swimlaneBody=0;top=0;left=0;bottom=0;right=0;collapsible=0;dropTarget=0;fillColor=none;points=[[0,0.5],[1,0.5]];portConstraint=eastwest;strokeColor=default;fontFamily=Helvetica;fontSize=12;fontColor=default;" vertex="1" parent="104">
                    <mxGeometry y="345" width="770" height="52" as="geometry"/>
                </mxCell>
                <mxCell id="134" value="RN 2" style="shape=partialRectangle;html=1;whiteSpace=wrap;connectable=0;overflow=hidden;fillColor=none;top=0;left=0;bottom=0;right=0;pointerEvents=1;strokeColor=default;fontFamily=Helvetica;fontSize=12;fontColor=default;startSize=40;fontStyle=1" vertex="1" parent="133">
                    <mxGeometry width="129" height="52" as="geometry">
                        <mxRectangle width="129" height="52" as="alternateBounds"/>
                    </mxGeometry>
                </mxCell>
                <mxCell id="135" style="shape=partialRectangle;html=1;whiteSpace=wrap;connectable=0;overflow=hidden;fillColor=none;top=0;left=0;bottom=0;right=0;pointerEvents=1;strokeColor=default;fontFamily=Helvetica;fontSize=12;fontColor=default;startSize=40;" vertex="1" parent="133">
                    <mxGeometry x="129" width="641" height="52" as="geometry">
                        <mxRectangle width="641" height="52" as="alternateBounds"/>
                    </mxGeometry>
                </mxCell>
                <mxCell id="120" style="shape=tableRow;horizontal=0;startSize=0;swimlaneHead=0;swimlaneBody=0;top=0;left=0;bottom=0;right=0;collapsible=0;dropTarget=0;fillColor=none;points=[[0,0.5],[1,0.5]];portConstraint=eastwest;strokeColor=default;fontFamily=Helvetica;fontSize=12;fontColor=default;" vertex="1" parent="104">
                    <mxGeometry y="397" width="770" height="53" as="geometry"/>
                </mxCell>
                <mxCell id="121" value="CritÃ©rios de Aceite" style="shape=partialRectangle;html=1;whiteSpace=wrap;connectable=0;overflow=hidden;fillColor=#a0522d;top=0;left=0;bottom=0;right=0;pointerEvents=1;strokeColor=#6D1F00;fontFamily=Helvetica;fontSize=12;fontColor=#ffffff;startSize=40;rowspan=1;colspan=2;fontStyle=1" vertex="1" parent="120">
                    <mxGeometry width="770" height="53" as="geometry">
                        <mxRectangle width="129" height="53" as="alternateBounds"/>
                    </mxGeometry>
                </mxCell>
                <mxCell id="122" style="shape=partialRectangle;html=1;whiteSpace=wrap;connectable=0;overflow=hidden;fillColor=none;top=0;left=0;bottom=0;right=0;pointerEvents=1;strokeColor=default;fontFamily=Helvetica;fontSize=12;fontColor=default;startSize=40;" vertex="1" visible="0" parent="120">
                    <mxGeometry x="129" width="641" height="53" as="geometry">
                        <mxRectangle width="641" height="53" as="alternateBounds"/>
                    </mxGeometry>
                </mxCell>
                <mxCell id="123" style="shape=tableRow;horizontal=0;startSize=0;swimlaneHead=0;swimlaneBody=0;top=0;left=0;bottom=0;right=0;collapsible=0;dropTarget=0;fillColor=none;points=[[0,0.5],[1,0.5]];portConstraint=eastwest;strokeColor=default;fontFamily=Helvetica;fontSize=12;fontColor=default;" vertex="1" parent="104">
                    <mxGeometry y="450" width="770" height="52" as="geometry"/>
                </mxCell>
                <mxCell id="124" value="CA 1" style="shape=partialRectangle;html=1;whiteSpace=wrap;connectable=0;overflow=hidden;fillColor=none;top=0;left=0;bottom=0;right=0;pointerEvents=1;strokeColor=default;fontFamily=Helvetica;fontSize=12;fontColor=default;startSize=40;fontStyle=1" vertex="1" parent="123">
                    <mxGeometry width="129" height="52" as="geometry">
                        <mxRectangle width="129" height="52" as="alternateBounds"/>
                    </mxGeometry>
                </mxCell>
                <mxCell id="125" style="shape=partialRectangle;html=1;whiteSpace=wrap;connectable=0;overflow=hidden;fillColor=none;top=0;left=0;bottom=0;right=0;pointerEvents=1;strokeColor=default;fontFamily=Helvetica;fontSize=12;fontColor=default;startSize=40;" vertex="1" parent="123">
                    <mxGeometry x="129" width="641" height="52" as="geometry">
                        <mxRectangle width="641" height="52" as="alternateBounds"/>
                    </mxGeometry>
                </mxCell>
                <mxCell id="136" style="shape=tableRow;horizontal=0;startSize=0;swimlaneHead=0;swimlaneBody=0;top=0;left=0;bottom=0;right=0;collapsible=0;dropTarget=0;fillColor=none;points=[[0,0.5],[1,0.5]];portConstraint=eastwest;strokeColor=default;fontFamily=Helvetica;fontSize=12;fontColor=default;" vertex="1" parent="104">
                    <mxGeometry y="502" width="770" height="52" as="geometry"/>
                </mxCell>
                <mxCell id="137" value="CA 2" style="shape=partialRectangle;html=1;whiteSpace=wrap;connectable=0;overflow=hidden;fillColor=none;top=0;left=0;bottom=0;right=0;pointerEvents=1;strokeColor=default;fontFamily=Helvetica;fontSize=12;fontColor=default;startSize=40;fontStyle=1" vertex="1" parent="136">
                    <mxGeometry width="129" height="52" as="geometry">
                        <mxRectangle width="129" height="52" as="alternateBounds"/>
                    </mxGeometry>
                </mxCell>
                <mxCell id="138" style="shape=partialRectangle;html=1;whiteSpace=wrap;connectable=0;overflow=hidden;fillColor=none;top=0;left=0;bottom=0;right=0;pointerEvents=1;strokeColor=default;fontFamily=Helvetica;fontSize=12;fontColor=default;startSize=40;" vertex="1" parent="136">
                    <mxGeometry x="129" width="641" height="52" as="geometry">
                        <mxRectangle width="641" height="52" as="alternateBounds"/>
                    </mxGeometry>
                </mxCell>
                <mxCell id="139" value="Image" style="swimlane;whiteSpace=wrap;html=1;strokeColor=default;fontFamily=Lucida Console;fontSize=12;fontColor=default;startSize=40;fillColor=none;" vertex="1" parent="1">
                    <mxGeometry x="40" y="30" width="770" height="430" as="geometry"/>
                </mxCell>
            </root>
        </mxGraphModel>
    </diagram>
</mxfile>